<svg width="2083" height="2083" viewBox="0 0 2083 2083" fill="none" xmlns="http://www.w3.org/2000/svg">
<rect width="2083" height="2083" rx="1041.5" fill="#502379"/>
<path d="M1653.47 1157.13V982.509H1782.78V865.558H1653.47V707.932L1512.84 730.218V1159.04C1512.84 1191.11 1515.78 1220.38 1521.81 1246.79C1527.77 1273.2 1538.29 1295.7 1553.44 1314.24C1568.52 1332.77 1588.67 1347.26 1613.83 1357.64C1638.98 1368.01 1670.76 1373.23 1709.15 1373.23C1739.38 1373.23 1764.83 1370.73 1785.57 1365.65C1806.32 1360.65 1825.22 1354.62 1842.21 1347.71L1822.35 1238.26C1809.11 1243.33 1794.55 1247.23 1778.44 1250.03C1762.41 1252.82 1746.81 1254.29 1731.73 1254.29C1700.25 1254.29 1679.36 1245.47 1668.99 1227.89C1658.62 1210.31 1653.47 1186.7 1653.47 1157.13Z" fill="white"/>
<path d="M642.687 1361.9C668.578 1307.25 694.175 1250.32 719.331 1191.18C744.486 1132.04 768.391 1073.57 791.046 1015.68C813.701 957.795 834.516 902.482 853.64 849.744C872.691 796.859 889.535 749.637 904.172 707.932H747.428C735.145 746.033 721.464 786.855 706.532 830.473C691.527 874.164 676.301 917.708 660.781 961.031C645.261 1004.43 630.183 1045.91 615.619 1085.63C601.055 1125.35 587.595 1159.55 575.311 1188.24C562.292 1159.33 548.611 1125.06 534.415 1085.34C520.146 1045.62 505.288 1004.06 489.768 960.737C474.248 917.414 458.949 873.87 443.944 830.252C428.939 786.561 415.331 745.812 403.121 707.932H240.787C254.689 749.416 271.165 796.638 290.289 849.523C309.413 902.409 330.303 957.722 353.104 1015.54C375.906 1073.35 399.958 1131.82 425.261 1190.89C450.564 1249.95 476.234 1306.96 502.272 1361.9H642.687Z" fill="white"/>
<path d="M1466.41 707.932L1325.78 730.218V1361.9H1466.41V707.932Z" fill="white"/>
<path d="M1286.51 1120.28C1286.51 979.568 1172.43 865.485 1031.72 865.485C973.684 865.485 920.211 884.904 877.402 917.488C865.486 949.337 852.982 981.995 839.816 1015.54C820.839 1063.93 801.053 1112.85 780.311 1162.13C800.391 1282.98 905.279 1375.07 1031.72 1375.07C1172.43 1375.07 1286.51 1260.99 1286.51 1120.28ZM1158.97 1120.28C1158.97 1189.93 1102.48 1246.42 1032.82 1246.42C963.166 1246.42 906.677 1189.93 906.677 1120.28C906.677 1050.62 963.166 994.131 1032.82 994.131C1102.48 994.131 1158.97 1050.62 1158.97 1120.28Z" fill="white"/>
</svg>
